<?xml version="1.0" encoding="utf-8"?>
<!-- Generator: Adobe Illustrator 18.1.1, SVG Export Plug-In . SVG Version: 6.00 Build 0)  -->
<svg version="1.1" xmlns="http://www.w3.org/2000/svg" xmlns:xlink="http://www.w3.org/1999/xlink" x="0px" y="0px"
	 viewBox="-440.1 280.1 61 50.9" enable-background="new -440.1 280.1 61 50.9" xml:space="preserve">
<g id="Layer_4">
	<g>
		<path fill="#263238" d="M-390.8,283.1h-44c-1.1,0-2,0.9-2,2v26h48v-26C-388.8,284-389.7,283.1-390.8,283.1L-390.8,283.1z"/>
		<path fill="#ECEFF1" d="M-436.8,311.1v4c0,1.1,0.9,2,2,2h44c1.1,0,2-0.9,2-2v-4"/>
		<rect x="-422.8" y="323.1" fill="#ECEFF1" width="20" height="2"/>
		<path fill="#90A4AE" d="M-406.7,317.1L-406.7,317.1l-12-0.1c0.2,2.2-0.6,4.3-2,6h16l0-0.1C-406.2,321.4-406.9,319.3-406.7,317.1z"
			/>
		<circle fill="#263238" cx="-412.8" cy="314.1" r="1"/>
	</g>
</g>
<g id="Layer_3">
	<rect x="-434.8" y="285.1" fill="#FAFAFA" width="44" height="24"/>
	<g>
		<g>
			<path fill="#4CAF50" d="M-425.6,304h-2.8c0-5.5,2.9-10.6,7.7-13.3l1.4,2.4C-423.2,295.4-425.6,299.5-425.6,304z"/>
		</g>
		<g>
			<path fill="#F44336" d="M-397.6,304h-2.8c0-4.5-2.4-8.7-6.3-10.9l1.4-2.4C-400.6,293.4-397.6,298.6-397.6,304z"/>
		</g>
		<path fill="#FFEB3B" d="M-413,288.6c-2.7,0-5.4,0.7-7.7,2.1l1.4,2.4c1.9-1.1,4.1-1.7,6.3-1.7c2.2,0,4.4,0.6,6.3,1.7l1.4-2.4
			C-407.7,289.3-410.3,288.6-413,288.6z"/>
		<path fill="#212121" d="M-412,304.9c-1.1,1.1-2.9,1.1-4,0c-1.1-1.1-1.1-2.9,0-4s12.9-8.9,12.9-8.9S-410.9,303.8-412,304.9z"/>
	</g>
	<path fill="#263238" d="M-383.8,297h-16c-1.1,0-2,0.9-2,2v30c0,1.1,0.9,2,2,2h16c1.1,0,2-0.9,2-2v-30
		C-381.8,297.9-382.7,297-383.8,297z M-383.8,325h-16v-22h16V325z"/>
	<circle fill="#BDBDBD" cx="-391.8" cy="328.2" r="2"/>
	<rect x="-399.8" y="303" fill="#263238" width="16" height="22"/>
	<circle fill="#FAFAFA" cx="-391.8" cy="328.2" r="1"/>
	<path fill="#FAFAFA" d="M-388.3,301h-7c-0.3,0-0.5-0.2-0.5-0.5v-1c0-0.3,0.2-0.5,0.5-0.5h7c0.3,0,0.5,0.2,0.5,0.5v1
		C-387.8,300.8-388,301-388.3,301z"/>
	<rect x="-399.8" y="303" fill="#FAFAFA" width="16" height="22"/>
	<g>
		<g>
			<path fill="#4CAF50" d="M-397.8,316.4h-1.3c0-2.6,1.4-5.1,3.7-6.4l0.7,1.2C-396.7,312.2-397.8,314.2-397.8,316.4z"/>
		</g>
		<g>
			<path fill="#F44336" d="M-384.4,316.4h-1.3c0-2.2-1.2-4.2-3-5.2l0.7-1.2C-385.8,311.3-384.4,313.7-384.4,316.4z"/>
		</g>
		<path fill="#FFEB3B" d="M-391.8,309c-1.3,0-2.6,0.3-3.7,1l0.7,1.2c0.9-0.5,2-0.8,3-0.8c1.1,0,2.1,0.3,3,0.8l0.7-1.2
			C-389.2,309.3-390.5,309-391.8,309z"/>
		<path fill="#212121" d="M-391.3,316.8c-0.5,0.5-1.4,0.5-1.9,0c-0.5-0.5-0.5-1.4,0-1.9s6.2-4.3,6.2-4.3S-390.7,316.3-391.3,316.8z"
			/>
	</g>
</g>
</svg>
