<?xml version="1.0" encoding="utf-8"?>
<!-- Generator: Adobe Illustrator 18.1.1, SVG Export Plug-In . SVG Version: 6.00 Build 0)  -->
<svg version="1.1" xmlns="http://www.w3.org/2000/svg" xmlns:xlink="http://www.w3.org/1999/xlink" x="0px" y="0px"
	 viewBox="-242.2 280.1 61 50.9" enable-background="new -242.2 280.1 61 50.9" xml:space="preserve">
<g id="Layer_4">
	<g>
		<path fill="#263238" d="M-192.9,283.1h-44c-1.1,0-2,0.9-2,2v26h48v-26C-190.9,284-191.8,283.1-192.9,283.1L-192.9,283.1z"/>
		<path fill="#ECEFF1" d="M-238.9,311.1v4c0,1.1,0.9,2,2,2h44c1.1,0,2-0.9,2-2v-4"/>
		<rect x="-224.9" y="323.1" fill="#ECEFF1" width="20" height="2"/>
		<path fill="#90A4AE" d="M-208.9,317.1L-208.9,317.1l-12-0.1c0.2,2.2-0.6,4.3-2,6h16l0-0.1C-208.3,321.4-209,319.3-208.9,317.1z"/>
		<circle fill="#263238" cx="-214.9" cy="314.1" r="1"/>
	</g>
</g>
<g id="Layer_2">
</g>
<g id="Layer_3">
	<rect x="-236.9" y="285.1" fill="#FAFAFA" width="44" height="24"/>
	<path fill="#263238" d="M-185.9,297h-16c-1.1,0-2,0.9-2,2v30c0,1.1,0.9,2,2,2h16c1.1,0,2-0.9,2-2v-30
		C-183.9,297.9-184.8,297-185.9,297z M-185.9,325h-16v-22h16V325z"/>
	<circle fill="#BDBDBD" cx="-193.9" cy="328.2" r="2"/>
	<rect x="-201.9" y="303" fill="#263238" width="16" height="22"/>
	<circle fill="#FAFAFA" cx="-193.9" cy="328.2" r="1"/>
	<path fill="#FAFAFA" d="M-190.4,301h-7c-0.3,0-0.5-0.2-0.5-0.5v-1c0-0.3,0.2-0.5,0.5-0.5h7c0.3,0,0.5,0.2,0.5,0.5v1
		C-189.9,300.8-190.1,301-190.4,301z"/>
	<rect x="-201.9" y="303" fill="#FAFAFA" width="16" height="22"/>
	<g>
		<polygon fill="#F04B36" points="-228.1,288.1 -225.2,289 -219.7,297.3 -215.2,293.5 -207.1,300.7 -208.8,300.8 -208.6,302.1 
			-204.9,301.8 -204.8,298 -206.1,297.9 -206.2,299.7 -215.2,291.8 -219.4,295.3 -224.3,287.8 -227.7,286.8 		"/>
		<rect x="-227.4" y="293.5" fill="#4DA0D8" width="1.3" height="13.7"/>
		<rect x="-222" y="298.4" fill="#E77528" width="1.3" height="8.9"/>
		<rect x="-216.6" y="297.2" fill="#0DB89A" width="1.3" height="10.1"/>
		<rect x="-211.3" y="301.9" fill="#06728D" width="1.3" height="5.4"/>
		<rect x="-205.8" y="303.8" fill="#C233E5" width="1.3" height="3.5"/>
	</g>
	<g>
		<polygon fill="#F04B36" points="-200.1,309.4 -198.5,309.9 -195.7,314.2 -193.3,312.2 -189,316 -189.9,316.1 -189.9,316.8 
			-187.9,316.6 -187.8,314.6 -188.5,314.6 -188.6,315.5 -193.3,311.3 -195.5,313.2 -198.1,309.3 -199.9,308.7 		"/>
		<rect x="-199.7" y="312.3" fill="#4DA0D8" width="0.7" height="7.2"/>
		<rect x="-196.9" y="314.8" fill="#E77528" width="0.7" height="4.7"/>
		<rect x="-194.1" y="314.2" fill="#0DB89A" width="0.7" height="5.3"/>
		<rect x="-191.3" y="316.6" fill="#06728D" width="0.7" height="2.9"/>
		<rect x="-188.4" y="317.6" fill="#C233E5" width="0.7" height="1.9"/>
	</g>
	<g>
		<g>
			
				<line fill="none" stroke="#666666" stroke-width="0.5" stroke-linecap="round" stroke-linejoin="bevel" x1="-233.3" y1="295.5" x2="-232.3" y2="295.5"/>
			
				<line fill="none" stroke="#666666" stroke-width="0.5" stroke-linecap="round" stroke-linejoin="bevel" stroke-dasharray="2.0833,2.0833" x1="-230.2" y1="295.5" x2="-197.9" y2="295.5"/>
			
				<line fill="none" stroke="#666666" stroke-width="0.5" stroke-linecap="round" stroke-linejoin="bevel" x1="-196.9" y1="295.5" x2="-195.9" y2="295.5"/>
		</g>
	</g>
	<g>
		<g>
			
				<line fill="none" stroke="#666666" stroke-width="0.5" stroke-linecap="round" stroke-linejoin="bevel" x1="-200.8" y1="314.1" x2="-199.8" y2="314.1"/>
			
				<line fill="none" stroke="#666666" stroke-width="0.5" stroke-linecap="round" stroke-linejoin="bevel" stroke-dasharray="2.3167,2.3167" x1="-197.5" y1="314.1" x2="-189.4" y2="314.1"/>
			
				<line fill="none" stroke="#666666" stroke-width="0.5" stroke-linecap="round" stroke-linejoin="bevel" x1="-188.2" y1="314.1" x2="-187.2" y2="314.1"/>
		</g>
	</g>
</g>
</svg>
