<?xml version="1.0" encoding="utf-8"?>
<!-- Generator: Adobe Illustrator 18.1.1, SVG Export Plug-In . SVG Version: 6.00 Build 0)  -->
<svg version="1.1" xmlns="http://www.w3.org/2000/svg" xmlns:xlink="http://www.w3.org/1999/xlink" x="0px" y="0px"
	 viewBox="-309 280.1 61 50.9" enable-background="new -309 280.1 61 50.9" xml:space="preserve">
<g id="Layer_4">
	<g>
		<path fill="#263238" d="M-259.6,283.1h-44c-1.1,0-2,0.9-2,2v26h48v-26C-257.6,284-258.5,283.1-259.6,283.1L-259.6,283.1z"/>
		<path fill="#ECEFF1" d="M-305.6,311.1v4c0,1.1,0.9,2,2,2h44c1.1,0,2-0.9,2-2v-4"/>
		<rect x="-291.6" y="323.1" fill="#ECEFF1" width="20" height="2"/>
		<path fill="#90A4AE" d="M-275.6,317.1L-275.6,317.1l-12-0.1c0.2,2.2-0.6,4.3-2,6h16l0-0.1C-275,321.4-275.7,319.3-275.6,317.1z"/>
		<circle fill="#263238" cx="-281.6" cy="314.1" r="1"/>
		<path fill="#455A64" d="M-303.6,283.1c-1.1,0-2,0.9-2,2v26h10l28-28H-303.6z"/>
	</g>
	<g>
		<path fill="#64B5F6" d="M-281.6,288.1l-9,1.8v11.2c0,4.8,7.7,6.7,9,7c0,0,0,0,0,0V288.1z"/>
		<path fill="#2196F3" d="M-281.6,288.1l9,1.8v11.2c0,4.8-7.7,6.7-9,7c0,0,0,0,0,0V288.1z"/>
		<path fill="#FAFAFA" d="M-281.6,289.1l8,1.6v10.4c0,3.2-5.6,5.3-8,5.9c-2.4-0.6-8-2.5-8-5.9v-10.4L-281.6,289.1 M-281.6,287.1
			l-10,2c0,0,0,5.9,0,12s10,8,10,8s10-2.2,10-8s0-12,0-12L-281.6,287.1L-281.6,287.1z"/>
		<g>
			<polygon fill="#FAFAFA" points="-283,301.5 -286.9,297.6 -284.8,295.5 -283,297.2 -278.4,292.7 -276.3,294.8 			"/>
		</g>
	</g>
</g>
<g id="Layer_2">
</g>
<g id="Layer_3">
	<path fill="#263238" d="M-252.6,297h-16c-1.1,0-2,0.9-2,2v30c0,1.1,0.9,2,2,2h16c1.1,0,2-0.9,2-2v-30
		C-250.6,297.9-251.5,297-252.6,297z M-252.6,325h-16v-22h16V325z"/>
	<circle fill="#BDBDBD" cx="-260.6" cy="328.2" r="2"/>
	<rect x="-268.6" y="303" fill="#263238" width="16" height="22"/>
	<circle fill="#FAFAFA" cx="-260.6" cy="328.2" r="1"/>
	<path fill="#FAFAFA" d="M-257.1,301h-7c-0.3,0-0.5-0.2-0.5-0.5v-1c0-0.3,0.2-0.5,0.5-0.5h7c0.3,0,0.5,0.2,0.5,0.5v1
		C-256.6,300.8-256.9,301-257.1,301z"/>
	<polygon fill="#455A64" points="-268.6,303 -252.6,303 -268.6,325 	"/>
	<g>
		<path fill="#64B5F6" d="M-260.6,308.1l-5.4,1.1v6.7c0,2.9,4.6,4,5.4,4.2c0,0,0,0,0,0V308.1z"/>
		<path fill="#2196F3" d="M-260.6,308.1l5.4,1.1v6.7c0,2.9-4.6,4-5.4,4.2c0,0,0,0,0,0V308.1z"/>
		<path fill="#FAFAFA" d="M-260.6,308.7l4.8,1v6.2c0,1.9-3.4,3.2-4.8,3.6c-1.5-0.3-4.8-1.5-4.8-3.6v-6.2L-260.6,308.7 M-260.6,307.5
			l-6,1.2c0,0,0,3.5,0,7.2c0,3.7,6,4.8,6,4.8s6-1.4,6-4.8c0-3.5,0-7.2,0-7.2L-260.6,307.5L-260.6,307.5z"/>
		<g>
			<polygon fill="#FAFAFA" points="-261.5,316.1 -263.8,313.8 -262.5,312.5 -261.5,313.6 -258.7,310.8 -257.4,312.1 			"/>
		</g>
	</g>
</g>
</svg>
