<?xml version="1.0" encoding="utf-8"?>
<!-- Generator: Adobe Illustrator 18.1.1, SVG Export Plug-In . SVG Version: 6.00 Build 0)  -->
<svg version="1.1" id="Layer_1" xmlns="http://www.w3.org/2000/svg" xmlns:xlink="http://www.w3.org/1999/xlink" x="0px" y="0px"
	 viewBox="0 0 792 612" enable-background="new 0 0 792 612" xml:space="preserve">
<g>
	<path fill="#B9B9B9" d="M303.2,187.5c0-6.5-5-12-12-12h-17.9c-6.5,0-12,5-12,12v7.5h41.3v-7.5H303.2z"/>
	<path fill="#B9B9B9" d="M631.8,121.3H182.7c-36.4,0-65.7,29.4-65.7,65.7v238c0,36.4,29.4,65.7,65.7,65.7h449.2
		c36.4,0,65.7-29.4,65.7-65.7V187C697.6,151.1,668.2,121.3,631.8,121.3z M425.2,202.4c0-2,1-4,2-5c1-1,3-2,5-2h123v0.5h70.7
		c3.5,0,6.5,3,6.5,6.5v26.9c0,3.5-3,6.5-6.5,6.5h-70.7v0.5H432.6c-2,0-4-1-5-2c-1.5-1.5-2-3-2-5v-26.9H425.2z M425.2,295
		c0-2,1-4,2-5c1.5-1.5,3-2,5-2h123v0.5h70.7c3.5,0,6.5,3,6.5,6.5v26.9c0,3.5-3,6.5-6.5,6.5h-70.7v0.5H432.6c-2,0-4-1-5-2
		c-1-1-2-3-2-5V295H425.2z M185.1,206.4c0-6.5,5.5-12,12-12h54.3v-10c0-10,8-17.9,17.9-17.9h26.9c10,0,17.9,8,17.9,17.9v10h54.3
		c6.5,0,12,5.5,12,12v112.5c0,6.5-5.5,12-12,12H197.6c-6.5,0-12-5.5-12-12V206.4H185.1z M634.3,424c0,3.5-3,6.5-6.5,6.5H187.1
		c-3.5,0-6.5-3-6.5-6.5v-26.9c0-3.5,3-6.5,6.5-6.5h440.7c3.5,0,6.5,3,6.5,6.5L634.3,424L634.3,424z"/>
</g>
</svg>
