<?xml version="1.0" encoding="utf-8"?>
<!-- Generator: Adobe Illustrator 18.1.1, SVG Export Plug-In . SVG Version: 6.00 Build 0)  -->
<svg version="1.1" id="Layer_1" xmlns="http://www.w3.org/2000/svg" xmlns:xlink="http://www.w3.org/1999/xlink" x="0px" y="0px"
	 viewBox="0 0 792 612" enable-background="new 0 0 792 612" xml:space="preserve">
<g>
	<path fill="#B9B9B9" d="M523.7,173h95.1L456,10.2v95.1C455.5,142.7,486.4,173,523.7,173z"/>
	<path fill="#B9B9B9" d="M438.6,103.8V11.2H237.9l0,0c-35.9,0-64.7,29.4-64.7,64.7v461.1c0,35.9,29.4,64.7,64.7,64.7h314.7
		c35.9,0,64.7-29.4,64.7-64.7V190h-92.1C477.4,190,438.6,151.1,438.6,103.8z M257.8,254.7c0-11.5,9.5-20.9,20.9-20.9h35.4
		c8,0,15.4,4.5,18.4,11.5l-5.5,6c-2.5-6.5-9-11-16.4-11h-29.9c-9.5,0-17.4,8-17.4,17.4v29.9c0,9.5,8,17.4,17.4,17.4h29.9
		c9.5,0,17.4-8,17.4-17.4v-4.5l6.5-7v14.4c0,11.5-9.5,20.9-20.9,20.9h-35.4c-11.5,0-20.9-9.5-20.9-20.9v-35.9H257.8z M257.8,358.8
		c0-11.5,9.5-20.9,20.9-20.9h35.4c8,0,15.4,4.5,18.4,11.5l-5.5,6c-2.5-6.5-9-11-16.4-11h-29.9c-9.5,0-17.4,8-17.4,17.4v29.9
		c0,9.5,8,17.4,17.4,17.4h29.9c9.5,0,17.4-8,17.4-17.4v-4.5l6.5-7v14.4c0,11.5-9.5,20.9-20.9,20.9h-35.4c-11.5,0-20.9-9.5-20.9-20.9
		v-35.9H257.8z M335,503.2c0,11.5-9.5,20.9-20.9,20.9h-35.4c-11.5,0-20.9-9.5-20.9-20.9v-35.4c0-11.5,9.5-20.9,20.9-20.9h35.4
		c8,0,15.4,4.5,18.4,11.5l-5.5,6c-2.5-6.5-9-11-16.4-11h-29.9c-9.5,0-17.4,8-17.4,17.4v29.9c0,9.5,8,17.4,17.4,17.4h29.9
		c9.5,0,17.4-8,17.4-17.4v-4.5l6.5-7v13.9H335z M351.9,463.9L339,477.8c-0.5,0.5-0.5,0.5-0.5,1l-27.4,29.9c-2.5,2.5-6.5,3-9.5,0.5
		l-0.5-0.5c0,0,0,0-0.5-0.5l-27.4-29.9c-2.5-2.5-2.5-7,0.5-9.5l0,0c2.5-2.5,7-2.5,9.5,0.5l22.4,24.9l8-9c0.5-0.5,0.5-0.5,0.5-1
		l27.4-29.9c2.5-2.5,6.5-3,9.5-0.5C353.9,456.4,354.4,461.4,351.9,463.9z M351.9,354.8L339,368.7c-0.5,0.5-0.5,0.5-0.5,1l-27.4,29.9
		c-2.5,2.5-6.5,3-9.5,0.5l-0.5-0.5c0,0,0,0-0.5-0.5l-27.4-29.9c-2.5-2.5-2.5-7,0.5-9.5l0,0c2.5-2.5,7-2.5,9.5,0.5l22.4,24.9l8-9
		c0.5-0.5,0.5-0.5,0.5-1l27.4-29.9c2.5-2.5,6.5-3,9.5-0.5C353.9,347.8,354.4,352.3,351.9,354.8z M351.9,251.2L339,265.2
		c-0.5,0.5-0.5,0.5-0.5,1L311.1,296c-2.5,2.5-6.5,3-9.5,0.5l-0.5-0.5c0,0,0,0-0.5-0.5l-27.4-29.9c-2.5-2.5-2.5-7,0.5-9.5l0,0
		c2.5-2.5,7-2.5,9.5,0.5l22.4,24.9l8-9c0.5-0.5,0.5-0.5,0.5-1l27.4-29.9c2.5-2.5,6.5-3,9.5-0.5C353.9,243.8,354.4,248.2,351.9,251.2
		z M533.7,490.7c0,4.5-3.5,8-8,8H380.8c-4.5,0-8-3.5-8-8v-10c0-4.5,3.5-8,8-8h144.9c4.5,0,8,3.5,8,8L533.7,490.7L533.7,490.7z
		 M533.7,381.7c0,4.5-3.5,8-8,8H380.8c-4.5,0-8-3.5-8-8v-10c0-4.5,3.5-8,8-8h144.9c4.5,0,8,3.5,8,8L533.7,381.7L533.7,381.7z
		 M533.7,267.7v10c0,4.5-3.5,8-8,8H380.8c-4.5,0-8-3.5-8-8v-10c0-4.5,3.5-8,8-8h144.9C530.2,259.7,533.7,263.2,533.7,267.7z"/>
</g>
</svg>
