<?xml version="1.0" encoding="utf-8"?>
<!-- Generator: Adobe Illustrator 18.1.1, SVG Export Plug-In . SVG Version: 6.00 Build 0)  -->
<svg version="1.1" id="Layer_1" xmlns="http://www.w3.org/2000/svg" xmlns:xlink="http://www.w3.org/1999/xlink" x="0px" y="0px"
	 viewBox="0 0 792 612" enable-background="new 0 0 792 612" xml:space="preserve">
<g>
	<path fill="#B9B9B9" d="M480.7,170.9h93.1L414,11v93.1C414.5,141,444.3,170.9,480.7,170.9z"/>
	<path fill="#B9B9B9" d="M397.5,103.2V12H200.8l0,0c-34.9,0-63.7,28.9-63.7,63.7v452.7c0,34.9,28.9,63.7,63.7,63.7h308.7
		c34.9,0,63.7-28.9,63.7-63.7V187.8h-91.1C435.9,187.8,397.5,150,397.5,103.2z M455.8,384c0,31.4-25.9,57.3-57.3,57.3h-96.6
		c-31.4,0-57.3-25.9-57.3-57.3v-96.6c0-31.4,25.9-57.3,57.3-57.3h96.6c22.4,0,41.3,12.9,50.8,31.4l-14.4,15.9
		c-7-17.4-24.4-29.9-44.3-29.9h-80.7c-26.4,0-47.8,21.4-47.8,47.8v80.7c0,26.4,21.4,47.8,47.8,47.8h80.7c26.4,0,47.8-21.4,47.8-47.8
		v-12.4l17.4-18.9V384z M499.6,251.1c7,6.5,8,17.9,1,25.4l-34.9,38.3c-0.5,1-1.5,2-2,2.5l-74.2,81.2c-6.5,7-17.9,8-25.4,1
		c-0.5-0.5-0.5-0.5-1-1c-0.5-0.5-0.5-0.5-0.5-1l-74.2-81.2c-6.5-7-6-18.4,1-25.4H289c7-6.5,18.4-6,25.4,1l61.7,67.2l21.9-23.9
		c0.5-1,1.5-2,2-2.5l74.2-81.2C481.2,245.1,492.6,244.6,499.6,251.1z"/>
</g>
</svg>
