<?xml version="1.0" encoding="utf-8"?>
<!-- Generator: Adobe Illustrator 18.1.1, SVG Export Plug-In . SVG Version: 6.00 Build 0)  -->
<svg version="1.1" id="Layer_1" xmlns="http://www.w3.org/2000/svg" xmlns:xlink="http://www.w3.org/1999/xlink" x="0px" y="0px"
	 viewBox="0 -17 792 629" enable-background="new 0 -17 792 629" xml:space="preserve">
<g>
	<path fill="#B9B9B9" d="M484.7,369.5c-1,0.5-1.4,1-1.9,1.4l-12,23.4c-8.1,15.8-23.9,25.3-41.1,25.3c-9.1,0-17.7-2.4-25.3-7.7
		l-22-13.9c-0.5,0-1,0-1.9,0c-1,0-1.4,0-1.9,0l-22,13.9c-7.7,4.8-16.3,7.7-25.3,7.7c-17.2,0-33.5-9.6-41.6-25.3l-12-22.9
		c-0.5-0.5-1.4-1-1.9-1.4l-79.4,177.9c-4.3,9.6,0.5,14.3,10,10.5l40.2-15.3c10-3.8,21,1,24.9,11l15.3,40.2c3.8,10,10.5,10,14.8,0.5
		l78.9-176.9l78.9,176.9c4.3,9.6,11,9.6,14.8-0.5l15.3-40.2c3.8-10,14.8-14.8,24.9-11l40.2,15.3c10,3.8,14.3-1,10-10.5L484.7,369.5z
		"/>
	<path fill="#B9B9B9" d="M563.6,206.5c-5.7-9.1-5.7-24.4,0-33.5l14.3-22.5c5.7-9.1,2.9-21-6.7-25.8l-23.9-12.4
		c-9.6-4.8-17.2-18.2-16.7-29.2l1.4-26.8c0.5-11-8.1-19.6-19.1-19.1l-26.8,1.4c-11,0.5-23.9-7.2-29.2-16.7L444.5-2
		c-5.3-9.6-16.7-12.9-25.8-6.7L396.3,5.7c-9.1,5.7-24.4,5.7-33.5,0L340.3-8.7c-9.1-5.7-21-2.9-25.8,6.7l-12.4,23.9
		c-4.8,9.6-18.2,17.2-29.2,16.7l-26.8-1.4c-11-0.5-19.6,8.1-19.1,19.1l1.4,26.8c0.5,11-7.2,23.9-16.7,29.2l-23.9,12.4
		c-9.6,4.8-12.9,16.7-6.7,25.8l14.3,22.5c5.7,9.1,5.7,24.4,0,33.5L181.1,229c-5.7,9.1-2.9,21,6.7,25.8l23.9,12.4
		c9.6,4.8,17.2,18.2,16.7,29.2l-1.4,26.8c-0.5,11,8.1,19.6,19.1,19.1l26.8-1.4c11-0.5,23.9,7.2,29.2,16.7l12.4,23.4
		c5.3,9.6,16.7,12.9,25.8,6.7l22.5-14.3c9.1-5.7,24.4-5.7,33.5,0l22.5,14.3c9.1,5.7,21,2.9,25.8-6.7l12.4-23.9
		c4.8-9.6,18.2-17.2,29.2-16.7l26.8,1.4c11,0.5,19.6-8.1,19.1-19.1l-1.4-26.8c-0.5-11,7.2-23.9,16.7-29.2l23.9-12.4
		c9.6-4.8,12.9-16.7,6.7-25.8L563.6,206.5z M380,318.8c-71.2,0-129.1-57.9-129.1-129.1S308.8,60.7,380,60.7s129.1,57.9,129.1,129.1
		S451.2,318.8,380,318.8z"/>
	<path fill="#B9B9B9" d="M380,89.3c-55.5,0-100.4,44.9-100.4,100.4S324.5,290.2,380,290.2s100.4-44.9,100.4-100.4
		S435.5,89.3,380,89.3z"/>
</g>
</svg>
